Release info:

General
Format                                   : Matroska
Format version                           : Version 4 / Version 2
File size                                : 691 MiB
Duration                                 : 2h 23mn
Overall bit rate                         : 675 Kbps

Video
ID                                       : 1
Format                                   : MPEG-4 Visual
Codec ID/Hint                            : XviD
Duration                                 : 2h 23mn
Bit rate                                 : 565 Kbps
Width                                    : 662 pixels
Height                                   : 256 pixels
Display aspect ratio                     : 2.40:1
Frame rate mode                          : Constant
Frame rate                               : 23.976 fps
Color space                              : YUV
Chroma subsampling                       : 4:2:0
Bit depth                                : 8 bits
Scan type                                : Progressive
Compression mode                         : Lossy
Bits/(Pixel*Frame)                       : 0.151
Stream size                              : 579 MiB (84%)
Language                                 : English
Default                                  : Yes
Forced                                   : No

Audio
ID                                       : 2
Format                                   : MPEG Audio
Format version                           : Version 1
Format profile                           : Layer 3
Mode                                     : Joint stereo
Mode extension                           : MS Stereo
Codec ID                                 : A_MPEG/L3
Codec ID/Hint                            : MP3
Duration                                 : 2h 23mn
Bit rate mode                            : Constant
Bit rate                                 : 96.0 Kbps
Channel(s)                               : 2 channels
Sampling rate                            : 48.0 KHz
Compression mode                         : Lossy
Stream size                              : 98.3 MiB (14%)
Language                                 : English
Default                                  : Yes
Forced                                   : No



Source:
credit to original movie ripper 1MPERiUM (Thanks)

IMDB Info:

Bond's loyalty to M is tested when her past comes back to haunt her. Whilst MI6 comes under attack, 007 must track down and destroy the threat, no matter how personal the cost.

Director: Sam Mendes
Writers: Neal Purvis, Robert Wade, 
Stars: Daniel Craig, Javier Bardem, Naomie Harris

Genres: Action | Adventure | Crime | Thriller
 
http://www.imdb.com/title/tt1074638/

Screen Shot:
 
http://www.shotpix.com/images/61383380568285259743.png 
http://www.shotpix.com/images/44233487238571705984.png 
http://www.shotpix.com/images/12887812952249886664.png 
http://www.shotpix.com/images/85229264351120475762.png 
http://www.shotpix.com/images/81415626723028467625.png